<?xml version="1.0" encoding="UTF-8"?>
<svg width="355px" height="80px" viewBox="0 0 355 80" version="1.1" xmlns="http://www.w3.org/2000/svg" xmlns:xlink="http://www.w3.org/1999/xlink">
    <!-- Generator: Sketch 47.1 (45422) - http://www.bohemiancoding.com/sketch -->
    <desc>Created with Sketch.</desc>
    <defs>
        <linearGradient x1="128.384%" y1="130.596515%" x2="128.384%" y2="-3.4997319%" id="linearGradient-1">
            <stop stop-color="#5CE6FF" stop-opacity="0" offset="0%"></stop>
            <stop stop-color="#5CE6FF" stop-opacity="0.72" offset="100%"></stop>
        </linearGradient>
    </defs>
    <g id="Page-1" stroke="none" stroke-width="1" fill="none" fill-rule="evenodd">
        <g id="logo">
            <g id="epicalls_1_" transform="translate(74.000000, 0.000000)" fill-rule="nonzero" fill="#363636">
                <g id="epicalls">
                    <path d="M38.7,23.7 C34.4,20 29.2,18.1 23,18.1 C16.8,18.1 11.5,20.2 7,24.3 C2.5,28.5 0.2,34.1 0.2,41.1 C0.2,48.1 2.4,53.8 6.9,57.9 C11.3,62.1 16.9,64.2 23.7,64.2 C30.5,64.2 36.4,61.8 41.5,57.1 L34.5,49.5 C31.7,52.4 28.1,53.9 23.7,53.9 C21,53.9 18.5,53.1 16.4,51.6 C14.2,50 13,48.1 12.6,45.6 L45.2,45.6 L45.2,39 C45.2,32.5 43,27.4 38.7,23.7 Z M12.9,36.8 C13.2,34.3 14.4,32.2 16.5,30.7 C18.5,29.2 20.8,28.5 23.3,28.5 C25.8,28.5 27.9,29.2 29.6,30.7 C31.3,32.1 32.3,34.2 32.6,36.9 L12.9,36.9 L12.9,36.8 Z M75.2,18.1 C70,18.1 65.5,20 61.6,23.8 L61.6,18.8 L49.1,18.8 L49.1,79.7 L61.6,79.7 L61.6,57.7 C64.9,62.1 69.3,64.3 74.8,64.3 C80.3,64.3 85,62.1 89.1,57.6 C93.2,53.2 95.2,47.7 95.2,41.1 C95.2,34.5 93.2,29 89.1,24.7 C85,20.3 80.4,18.1 75.2,18.1 Z M79.4,50.2 C77.2,52.5 74.7,53.7 71.8,53.7 C68.9,53.7 66.5,52.6 64.4,50.2 C62.4,47.9 61.4,44.9 61.4,41.3 C61.4,37.7 62.4,34.6 64.4,32.2 C66.4,29.8 68.9,28.6 71.8,28.6 C74.7,28.6 77.3,29.8 79.4,32.3 C81.5,34.7 82.6,37.8 82.6,41.4 C82.7,44.9 81.6,47.9 79.4,50.2 Z M105.8,0.7 C103.7,0.7 102,1.4 100.6,2.8 C99.2,4.2 98.5,5.9 98.5,8 C98.5,10.1 99.2,11.8 100.6,13.2 C102,14.6 103.7,15.3 105.8,15.3 C107.8,15.3 109.6,14.6 111,13.2 C112.4,11.8 113.1,10.1 113.1,8 C113.1,6 112.4,4.2 111,2.8 C109.6,1.4 107.8,0.7 105.8,0.7 Z M99.5,63.6 L112,63.6 L112,18.9 L99.5,18.9 L99.5,63.6 Z M140.3,53.2 C137.1,53.2 134.4,52.1 132,50 C129.6,47.9 128.5,44.9 128.5,41.1 C128.5,37.3 129.7,34.3 132,32.2 C134.4,30.1 137.2,29 140.4,29 C142.4,29 144.5,29.5 146.6,30.4 C148.7,31.3 150.4,32.7 151.9,34.4 L158.4,25.9 C155.9,23.3 153,21.3 149.7,20 C146.4,18.7 143.1,18 139.9,18 C133.5,18 127.9,20.1 123.2,24.4 C118.5,28.7 116.2,34.3 116.2,41.1 C116.2,47.9 118.5,53.5 123.1,57.7 C127.7,61.9 133.4,64.1 140.1,64.1 C146.8,64.1 153,61.1 158.8,55.1 L151.4,46.8 C148.2,51.2 144.4,53.2 140.3,53.2 Z M196.7,22.2 C193.3,19.5 188.8,18.1 183.4,18.1 C175.9,18.1 169.2,20.2 163.3,24.5 L168.9,32.6 C170.6,31.3 172.6,30.3 175,29.4 C177.4,28.5 179.7,28.1 181.9,28.1 C186.9,28.1 189.5,30.5 189.5,35.2 L189.5,35.4 L180.2,35.4 C174.4,35.4 169.9,36.5 166.6,38.8 C163.3,41.1 161.6,44.5 161.6,49.1 C161.6,53.7 163.2,57.3 166.4,60.1 C169.6,62.8 173.6,64.2 178.3,64.2 C183,64.2 187,62.2 190.2,58.1 L190.2,63.5 L201.9,63.5 L201.9,35 C201.9,29.2 200.2,24.9 196.7,22.2 Z M189.3,46.6 C189.3,48.9 188.5,50.7 186.8,52 C185.1,53.4 183.2,54 180.9,54 C178.7,54 177,53.6 175.8,52.7 C174.6,51.8 174,50.6 174,49 C174,45.9 176.5,44.3 181.5,44.3 L189.3,44.3 L189.3,46.6 Z M208.3,63.6 L220.8,63.6 L220.8,1.9 L208.3,1.9 L208.3,63.6 Z M227.6,63.6 L240,63.6 L240,1.9 L227.5,1.9 L227.5,63.6 L227.6,63.6 Z M275.9,40.3 C274.2,39.3 272.8,38.6 271.6,38.1 C270.4,37.6 268.4,37 265.6,36.1 C262.8,35.2 260.7,34.4 259.5,33.8 C258.3,33.1 257.7,32.2 257.7,31.1 C257.7,29 259.6,27.9 263.5,27.9 C267.4,27.9 271.2,29.2 275.1,31.9 L279.8,23.6 C274.5,20.1 269.3,18.3 264,18.3 C258.7,18.3 254.4,19.6 251.1,22.2 C247.8,24.8 246.1,28.2 246.1,32.3 C246.1,36.4 247.8,39.5 251.2,41.7 C252.9,42.8 254.3,43.6 255.6,44.1 C256.9,44.7 258.8,45.3 261.3,46.1 C263.8,46.9 265.7,47.7 267,48.6 C268.3,49.5 269,50.5 269,51.5 C269,52.6 268.5,53.4 267.6,54 C266.7,54.6 265.4,55 263.8,55 C258.5,55 253.6,53.2 248.9,49.6 L243.4,57.4 C246.3,59.7 249.5,61.5 253.1,62.7 C256.7,63.9 260.2,64.5 263.5,64.5 C268.5,64.5 272.6,63.2 275.8,60.5 C279,57.8 280.7,54.3 280.7,49.9 C280.7,45.5 279,42.1 275.9,40.3 Z" id="Shape"></path>
                </g>
            </g>
            <g id="Shape_2_1_" transform="translate(0.000000, 3.000000)" fill-rule="nonzero" fill="url(#linearGradient-1)">
                <g id="Shape_2">
                    <path d="M37.5,56.3 C37.4,56.3 37.4,56.3 37.3,56.3 C26.8,56.3 18.3,47.8 18.3,37.3 C18.3,26.8 26.8,18.3 37.3,18.3 C37.4,18.3 37.4,18.3 37.5,18.3 L37.5,0 C37.4,0 37.4,0 37.3,0 C16.7,0 0,16.7 0,37.3 C0,57.9 16.7,74.6 37.3,74.6 C37.4,74.6 37.4,74.6 37.5,74.6 L37.5,56.3 Z" id="Shape"></path>
                </g>
            </g>
            <g id="Shape_1_1_" transform="translate(28.000000, 2.000000)" fill="#5BD1FF">
                <g id="Shape_1">
                    <circle id="Oval" cx="9.6" cy="10.1" r="9.2"></circle>
                </g>
            </g>
            <g id="Shape_1_copy_3_1_" transform="translate(28.000000, 31.000000)" fill="#F2D431">
                <g id="Shape_1_copy_3">
                    <circle id="Oval" cx="9.6" cy="9.6" r="9.2"></circle>
                </g>
            </g>
            <g id="Shape_1_copy_4_1_" transform="translate(28.000000, 59.000000)" fill="#E66EA5">
                <g id="Shape_1_copy_4">
                    <circle id="Oval" cx="9.6" cy="9.4" r="9.2"></circle>
                </g>
            </g>
        </g>
    </g>
</svg>
