<svg xmlns="http://www.w3.org/2000/svg" width="14" height="14">
    <path fill="#cecece" fill-rule="evenodd" d="M9.651 12.01c-.5 0-1.103-.125-1.767-.376C6.429 11.085 4.846 10 3.426 8.58 2.006 7.16.922 5.575.373 4.12c-.5-1.324-.501-2.411-.004-2.908l.22-.227c.454-.477.975-1.019 1.645-.99.469.019.923.31 1.388.888 1.372 1.708.754 2.317.038 3.023l-.127.125c-.117.117-.339.66 1.721 2.721.673.672 1.246 1.164 1.704 1.462.289.188.804.472 1.016.26l.127-.129c.705-.715 1.313-1.332 3.02.04.578.465.868.919.887 1.388.028.679-.513 1.193-.99 1.647-.078.075-.155.147-.227.219-.248.247-.642.371-1.14.371z"/>
</svg>
