<svg xmlns="http://www.w3.org/2000/svg" width="11.9" height="12.8">
    <path fill="#56C2CD" fill-rule="evenodd" d="M10.676 5.708l-4.639 4.639c-.008.008-.019.01-.027.018a.784.784 0 0 1-.228.152l-.006.003c-.018.008-.038.005-.057.011a.792.792 0 0 1-.239.047c-.034 0-.066-.015-.099-.019-.067-.009-.134-.013-.197-.039l-.005-.003a.781.781 0 0 1-.256-.17L.284 5.708a.787.787 0 1 1 1.113-1.114l3.296 3.295L4.692.988a.788.788 0 0 1 1.575 0V7.89l3.295-3.296a.789.789 0 0 1 1.114 1.114zM.954 11.447h9.052a.787.787 0 1 1 0 1.575H.954a.787.787 0 1 1 0-1.575z"/>
</svg>
