<svg xmlns="http://www.w3.org/2000/svg" width="16.032" height="16.032">
    <path fill="#bababa" fill-rule="evenodd" d="M11.223.776a2.648 2.648 0 0 0-3.746 0L.609 7.642a.342.342 0 0 0-.097.197l-.509 3.77a.345.345 0 0 0 .34.391c.015 0 .031 0 .046-.003l2.271-.307a.346.346 0 0 0-.093-.685l-1.82.246.355-2.629 2.767 2.767a.341.341 0 0 0 .486 0l6.868-6.866A2.636 2.636 0 0 0 12 2.648c0-.708-.276-1.373-.777-1.872zM7.61 1.62l1.153 1.153-6.267 6.268-1.153-1.153L7.61 1.62zm-3.496 9.037L2.987 9.53l6.267-6.268 1.127 1.128-6.267 6.267zm6.748-6.761L8.103 1.137c.35-.289.788-.448 1.248-.448a1.956 1.956 0 0 1 1.958 1.959c0 .463-.158.898-.447 1.248z" />
</svg>
