<svg xmlns="http://www.w3.org/2000/svg" width="31.968" height="12.376">
    <path fill="#FFF" fill-rule="evenodd" d="M31.389 11.362c-.741.682-1.871.93-3.453.76-4.672-.506-4.656-2.367-4.639-4.524l.002-.382c0-.356-.486-1.515-6.737-1.51-2.041.001-3.657.125-4.805.369-.723.154-1.935.507-1.935 1.149l.002.388c.013 2.155.024 4.014-4.646 4.525-1.582.174-2.711-.074-3.452-.755-1.072-.988-1.029-2.588-.993-4 .006-.233.013-.46.013-.677.002-.751.413-1.538 1.169-2.294.758-.759 1.865-1.485 3.252-2.113C8.209.92 12.258.16 16.567.157c4.309-.003 8.356.753 11.397 2.126 2.765 1.248 4.414 2.894 4.413 4.4.001.218.006.446.011.679.034 1.413.063 3.026-.999 4zm.132-3.977c-.005-.24-.011-.475-.011-.7.002-1.122-1.531-2.54-3.904-3.612-2.931-1.323-6.852-2.052-11.041-2.05-4.187.004-8.109.736-11.042 2.065-2.376 1.075-3.907 2.495-3.909 3.618 0 .224-.006.459-.011.7-.033 1.228-.07 2.619.713 3.339.538.496 1.47.675 2.771.532 3.893-.427 3.884-1.641 3.872-3.656l-.002-.394c-.001-.957.884-1.628 2.623-1.998 1.206-.257 2.884-.387 4.984-.388 5.188-.004 7.604.751 7.604 2.377l-.002.388c-.017 2.017-.028 3.235 3.866 3.656 1.3.139 2.232-.041 2.771-.537l.048-.046c.733-.733.7-2.092.67-3.294z"/>
</svg>
