<svg xmlns="http://www.w3.org/2000/svg" width="30.624" height="30.624">
    <path fill-rule="evenodd" d="M22.478 21.717l-6.189-6.189a4.273 4.273 0 0 0 2.99-4.07 4.27 4.27 0 0 0-3.7-4.231V2.183c0-.71-.388-1.344-1.022-1.638a1.742 1.742 0 0 0-1.874.237L6.966 6.214 1.287.545a.56.56 0 0 0-.804 0 .56.56 0 0 0 0 .805L5.48 6.347h-.625a2.11 2.11 0 0 0-2.11 2.101v6.029c0 1.164.946 2.101 2.11 2.101h1.978l5.821 5.527.038.029a1.79 1.79 0 0 0 1.883.227 1.807 1.807 0 0 0 1.023-1.637v-4.297l6.085 6.085a.561.561 0 0 0 .805 0 .575.575 0 0 0-.01-.795zM6.493 15.433H4.855a.972.972 0 0 1-.975-.965V8.439c0-.53.436-.966.975-.966h1.638v7.96zm7.959 5.291a.67.67 0 0 1-.369.615.606.606 0 0 1-.662-.076l-5.793-5.499V8.476l6.815 6.815v5.433h.009zm0-7.042L7.77 7l5.651-5.366a.606.606 0 0 1 .662-.076.67.67 0 0 1 .369.615v11.509zm1.136-5.31a3.133 3.133 0 0 1 0 6.162V8.372z" opacity=".302"/>
</svg>
