<svg xmlns="http://www.w3.org/2000/svg" width="25" height="21">
    <path fill-rule="evenodd" d="M22.423 12.897l-.931.955-2.915-2.89-2.89 2.89-.955-.955 2.914-2.891-2.914-2.89.955-.955 2.89 2.89 2.915-2.89.931.955-2.891 2.89 2.891 2.891zm-10.655 6.344a2.306 2.306 0 0 1-.882.196c-.465 0-.931-.147-1.298-.466l-4.483-3.698H4.028a3.346 3.346 0 0 1-3.356-3.356V8.365a3.346 3.346 0 0 1 3.356-3.356h.71l4.85-3.968c.612-.514 1.445-.612 2.18-.269a2.02 2.02 0 0 1 1.176 1.861v14.746c0 .808-.441 1.519-1.176 1.862zm-.245-16.608c0-.367-.27-.514-.343-.563a.613.613 0 0 0-.661.074L5.252 6.455H4.028a1.913 1.913 0 0 0-1.911 1.91v3.576c0 1.054.857 1.911 1.911 1.911H5.62l4.899 4.017c.294.22.587.122.661.073.073-.049.343-.196.343-.563V2.633z" opacity=".2"/>
</svg>
