<svg xmlns="http://www.w3.org/2000/svg" width="16.59" height="16.59">
    <path fill="#56C2CD" fill-rule="evenodd" d="M8.5 16.778C3.932 16.778.222 13.067.222 8.5.222 3.932 3.932.222 8.5.222c4.567 0 8.278 3.71 8.278 8.278 0 4.567-3.711 8.278-8.278 8.278zm0-15.334A7.05 7.05 0 0 0 1.444 8.5 7.05 7.05 0 0 0 8.5 15.556 7.05 7.05 0 0 0 15.556 8.5 7.05 7.05 0 0 0 8.5 1.444zm3.802 8.114c-1.569.91-3.14 1.821-4.709 2.728a1.232 1.232 0 0 1-1.217-.011 1.276 1.276 0 0 1-.606-1.065V5.766c.01-.457.255-.85.606-1.058.175-.104.377-.16.588-.165.195-.002.415.037.629.153 1.557.929 3.147 1.806 4.709 2.728.365.212.618.608.618 1.064 0 .456-.253.858-.618 1.07zm-.903-1.396c-1.304-.725-2.61-1.452-3.915-2.175a.442.442 0 0 0-.191-.052.389.389 0 0 0-.391.39v4.336a.393.393 0 0 0 .582.343c1.309-.721 2.608-1.457 3.915-2.18a.374.374 0 0 0 0-.662z"/>
</svg>
