<svg xmlns="http://www.w3.org/2000/svg" width="18.624" height="22.656">
    <path fill="#cecece" fill-rule="evenodd" d="M12.994 3.578h-.685l-1.158 11.531a1.06 1.06 0 0 1-1.045.958H3.894a1.06 1.06 0 0 1-1.046-.963L1.691 3.578h-.685a.498.498 0 1 1 0-.997h3.509v-1.36C4.515.59 5.029.092 5.66.092h2.679c.632 0 1.146.498 1.146 1.129v1.36h3.509a.498.498 0 1 1 0 .997zM3.84 15.01c.003.032.036.06.054.06h6.212c.018 0 .05-.028.053-.055l1.148-11.437H2.693L3.84 15.01zM8.488 1.221a.15.15 0 0 0-.149-.148H5.66a.149.149 0 0 0-.148.148v1.36h2.976v-1.36z" />
</svg>
