<svg xmlns="http://www.w3.org/2000/svg" width="332px" height="74px">
    <path fill="#D3DBE7" fill-rule="evenodd" d="M331.948 33.536h1.428v6.928h-1.428v-6.928zm-2.957-4.625h1.429v16.177h-1.429V28.911zm-2.956 4.497h1.429v7.183h-1.429v-7.183zm-2.957-2.313h1.429v11.809h-1.429V31.095zm-2.956-1.669h1.429v15.148h-1.429V29.426zm-2.957 2.055h1.429v11.038h-1.429V31.481zm-2.956-5.782h1.428v22.6h-1.428v-22.6zm-2.957-7.964h1.428v38.529h-1.428V17.735zm-2.957-6.551h1.429v51.632h-1.429V11.184zm-2.956-5.781h1.429v63.194h-1.429V5.403zM302.382.007h1.429v73.986h-1.429V.007zm-2.956 8.735h1.429v56.515h-1.429V8.742zm-2.957-3.981h1.429V69.24h-1.429V4.761zm-2.956 8.931h1.429v31.791h-1.429V13.692zm-2.957 10.635h1.429v23.882h-1.429V24.327zm-2.956 7.154h1.428v11.038H287.6V31.481zm-2.957 2.184h1.429v6.671h-1.429v-6.671zm-2.956-4.625h1.428v15.92h-1.428V29.04zm-2.957 2.697h1.429v10.525h-1.429V31.737zm-2.957-3.081h1.429v16.69h-1.429v-16.69zm-2.956-3.213h1.429v23.113h-1.429V25.443zm-2.957-11.818h1.429v46.751h-1.429V13.625zm-2.956 8.478h1.429v29.793h-1.429V22.103zm-2.957 6.423h1.429v16.947h-1.429V28.526zm-2.956-3.982h1.429v24.913h-1.429V24.544zm-2.957 3.469h1.429v17.976h-1.429V28.013zm-2.956.513h1.428v16.947h-1.428V28.526zm-2.957 4.882h1.429v7.183h-1.429v-7.183zm-2.957-2.698h1.429v12.58h-1.429V30.71zm-2.956 3.212h1.429v6.156h-1.429v-6.156zm-2.957-4.624h1.429v15.405h-1.429V29.298zm-2.956 2.825h1.429v9.753h-1.429v-9.753zm-2.957-2.825h1.429v15.405h-1.429V29.298zm-2.956-7.195h1.429v29.793h-1.429V22.103zm-2.957 1.413h1.429v26.968h-1.429V23.516zm-2.956 2.956h1.428V47.53h-1.428V26.472zm-2.957 1.411h1.429v18.232h-1.429V27.883zm-2.957-7.964h1.429v34.162h-1.429V19.919zm-2.956 6.038h1.429v22.086h-1.429V25.957zm-2.957-8.735h1.429v39.557h-1.429V17.222zm-2.956 4.881h1.429v29.793h-1.429V22.103zm-2.957 6.937h1.429v15.92h-1.429V29.04zm-2.956 3.212h1.429v9.496h-1.429v-9.496zm-2.957-3.341h1.429v16.177h-1.429V28.911zm-2.957.772h1.429v14.635h-1.429V29.683zm-2.956 1.927h1.429v10.781h-1.429V31.61zm-2.957-2.954h1.429v16.69h-1.429v-16.69zm-2.956-6.553h1.429v29.793h-1.429V22.103zm-2.957-8.35h1.429v46.494h-1.429V13.753zm-2.956 3.726h1.429v39.043h-1.429V17.479zm-2.956 4.624h1.428v29.793h-1.428V22.103zm-2.957 6.808h1.428v16.177h-1.428V28.911zm-2.957 4.625h1.429v6.928h-1.429v-6.928zm-2.957-4.368h1.429v15.663h-1.429V29.168zm-2.956-7.065h1.429v29.793h-1.429V22.103zm-2.957 7.065h1.429v15.663h-1.429V29.168zm-2.956-5.266h1.429v26.197h-1.429V23.902zm-2.957-8.479h1.429v43.154h-1.429V15.423zm-2.956-2.955h1.428v49.064h-1.428V12.468zm-2.957 17.857h1.429v13.351h-1.429V30.325zm-2.957 2.184h1.429v8.983h-1.429v-8.983zm-2.956-5.782h1.429v20.545h-1.429V26.727zm-2.957 6.681h1.429v7.183h-1.429v-7.183zm-2.956.927h1.429v3.33h-1.429v-3.33zm-2.957-.541h1.429v6.413h-1.429v-6.413zm-2.956-1.799h1.429v10.01h-1.429v-10.01zm-2.956-6.552h1.428v23.113h-1.428V25.443zm-2.957 2.44h1.428v18.232h-1.428V27.883zm-2.957-1.926h1.429v22.086h-1.429V25.957zm-2.957 3.211h1.429v15.663h-1.429V29.168zm-2.956 3.984h1.429v7.697h-1.429v-7.697zm-2.956-3.341h1.428v14.378h-1.428V29.811zm-2.957-.385h1.429v15.148h-1.429V29.426zm-2.957-7.323h1.43v29.793h-1.43V22.103zm-2.956 6.937h1.428v15.92h-1.428V29.04zm-2.957 4.625h1.429v6.671h-1.429v-6.671zm-2.957-15.801h1.429v38.273h-1.429V17.864zm-2.956-5.268h1.429v48.807h-1.429V12.596zm-2.956 14.774h1.428v19.26h-1.428V27.37zm-2.957 5.524h1.429v8.212H98.38v-8.212zm-2.957-2.826h1.43v13.864h-1.43V30.068zm-2.956-2.055h1.428v17.976h-1.428V28.013zm-2.956-8.864h1.428v35.703h-1.428V19.149zm-2.958-2.954h1.429v41.612h-1.429V16.195zm-2.956 12.461h1.429v16.69h-1.429v-16.69zm-2.956-6.553h1.428v29.793h-1.428V22.103zm-2.957-7.836h1.429v45.467h-1.429V14.267zm-2.956-7.965h1.429v61.397h-1.429V6.302zm-2.957 13.104H73.2v35.19h-1.429v-35.19zm-2.956-6.552h1.429v48.292h-1.429V12.854zm-2.957 9.249h1.428v29.793h-1.428V22.103zm-2.957-6.808h1.429v43.41h-1.429v-43.41zm-2.956-8.093h1.429v59.597h-1.429V7.202zm-2.957-3.084h1.429v65.764h-1.429V4.118zm-2.956 6.938h1.428v51.889h-1.428V11.056zm-2.957 11.047h1.429v29.793h-1.429V22.103zm-2.956 7.965h1.428v13.864h-1.428V30.068zm-2.957 3.468h1.429v6.928h-1.429v-6.928zm-2.957-2.312h1.429v11.552h-1.429V31.224zm-2.956 1.156h1.429v9.239h-1.429V32.38zm-2.957-4.497h1.429v18.232h-1.429V27.883zm-2.956 4.626h1.429v8.983h-1.429v-8.983zm-2.957-5.268h1.429v19.517h-1.429V27.241zm-2.956-9.634h1.429v38.786h-1.429V17.607zm-2.957 8.607h1.429v21.572h-1.429V26.214zm-2.957 8.222h1.429v5.129h-1.429v-5.129zm-2.956-2.313h1.429v9.753h-1.429v-9.753zm-2.957-6.038h1.429v21.829h-1.429V26.085zM12.64 15.808h1.429v42.383H12.64V15.808zm-2.957 6.295h1.429v29.793H9.683V22.103zM6.727 31.61h1.429v10.781H6.727V31.61zM3.77 28.269h1.429v17.462H3.77V28.269zM.814 35.14h1.429v3.719H.814V35.14z"/>
</svg>
